# xmcd
#
# Track frame offsets: 
#        150
#        22990
#        48980
#        69965
#        92170
#        114690
#        142362
#        167090
#        176375
#
# Disc length: 2539 seconds
#
# Revision: 1
# Processed by: cddbd v1.5.2PL0 Copyright (c) Steve Scherf et al.
# Submitted via: ExactAudioCopy v1.0b3
#
DISCID=7709e909
DTITLE=Johnny Guitar Watson - A Real Mother For Ya
DYEAR=1977
DGENRE=Funk
TTITLE0=A Real Mother For Ya
TTITLE1=Nothing Left To Be Desired
TTITLE2=Your Love Is My Love
TTITLE3=The Real Deal
TTITLE4=Tarzan
TTITLE5=I Wanna Thank You
TTITLE6=Lover Jones
TTITLE7=Kathaline
TTITLE8=De John's Delight
EXTD=
EXTT0=
EXTT1=
EXTT2=
EXTT3=
EXTT4=
EXTT5=
EXTT6=
EXTT7=
EXTT8=
PLAYORDER=
